<svg xmlns="http://www.w3.org/2000/svg" xmlns:xlink="http://www.w3.org/1999/xlink" id="tfl-type" x="0px" y="0px" viewBox="0 0 461.1 59.7" xml:space="preserve" class="style-svg img-fluid align-middle site-logo replaced-svg svg-replaced-0"> <path fill="#ffffff" class="svg-text svg-all" d="M445.2,21.3c6.1,0,10.6,5.7,10.6,9.4c0,1-0.4,1.8-1.7,2.2l-21.5,6.6c-0.1-0.8-0.2-1.8-0.2-2.7 C432.5,28.3,437.6,21.3,445.2,21.3 M459,46.6c-1.7,4.3-5.6,7.9-12.1,7.9c-7,0-12.5-4.8-14-12.8l23.9-7.2c2.2-0.7,3.3-1.7,3.3-3.8 c0-5.3-5.7-11.4-14.3-11.4c-10.3,0-18,8.3-18,18.9c0,12.2,8,19.7,17.5,19.7c9.4,0,14.4-5.9,15.7-10.8 C461.3,45.6,459.6,45.5,459,46.6 M421.4,0c-7.3,0-11.5,5.1-11.5,12.4V20H403c-0.5,0-0.9,0.4-0.9,0.8v0.7c0,0.5,0.4,0.8,0.9,0.8h6.9 v30.2c0,2.5-2.9,2.3-2.9,3.6v0.2c0,0.4,0.4,0.8,1,0.8h8.8c0.5,0,0.9-0.4,0.9-0.8v-0.2c0-1.2-3.3-1-3.3-3.6V22.4H426 c0.5,0,0.9-0.4,0.9-0.8v-0.7c0-0.5-0.4-0.8-0.9-0.8h-11.7v-5.3c-0.8-7,1.4-12.7,6.5-12.7c7.2,0.1,3.4,6.8,7.9,6.8c1.2,0,2-0.9,2-2 C430.8,3.1,426.4,0,421.4,0 M312.8,57.1h32.6c1.1,0,1.5-0.6,1.8-1.5l1.9-7.3c0.2-0.8-0.2-1.2-0.6-1.2h-0.5c-2.3,0-3.2,7.6-6.9,7.6 h-20.2c-1.2,0-2-0.8-2-2.2V6.6c0-2.7,2.8-2.2,2.8-3.6V3c0-0.5-0.5-0.8-1.4-0.8h-7.3c-0.9,0-1.4,0.2-1.4,0.8v0.1 c0,1.3,2.6,0.8,2.6,3.6v46c0,2.5-2.6,2.3-2.6,3.6v0.1C311.4,56.7,311.9,57.1,312.8,57.1 M282.8,19.2c-4.6,0-8.2,2.7-9.9,7.6v-6.5 c0-1-0.5-1.5-1.7-0.9l-4.2,1.9c-0.7,0.3-1,0.6-1,1v0.2c0,1.2,2.9,1.2,2.9,3.9v26.1c0,2.5-2.8,2.2-2.8,3.4v0.2c0,0.5,0.5,0.8,1.5,0.8 h7.2c0.9,0,1.5-0.2,1.5-0.8v-0.2c0-1.2-3.1-0.9-3.1-3.4V34c0-6.6,3.1-11.8,7.8-11.8c5.1,0,3.6,4.9,6.6,4.9c1.5,0,2.2-1.1,2.2-2.4 C289.8,21.8,287.4,19.2,282.8,19.2 M242.5,55.7c-9.3,0-15.6-9-15.6-19.2c0-8.9,5.6-15.2,13.2-15.2c8.7,0,15,8.2,15,19.1 C255.1,49.3,249.6,55.7,242.5,55.7 M241.8,57.8c10.6,0,17.9-8.1,17.9-18.8c0-11-8-19.6-18.8-19.6c-10.7,0-18.5,8-18.5,18.5 C222.4,48.6,230.4,57.8,241.8,57.8 M216,0c-7.3,0-11.5,5.1-11.5,12.4V20h-6.9c-0.5,0-0.9,0.4-0.9,0.8v0.7c0,0.5,0.4,0.8,0.9,0.8h6.9 v30.2c0,2.5-2.9,2.3-2.9,3.6v0.2c0,0.4,0.4,0.8,1,0.8h8.8c0.5,0,0.9-0.4,0.9-0.8v-0.2c0-1.2-3.3-1-3.3-3.6V22.4h11.7 c0.5,0,0.9-0.4,0.9-0.8v-0.7c0-0.5-0.4-0.8-0.9-0.8H209v-5.3c-0.8-7,1.4-12.7,6.5-12.7c7.2,0.1,3.4,6.8,7.9,6.8c1.2,0,2-0.9,2-2 C225.3,3.1,220.9,0,216,0 M160.4,57.8c9.2,0,15.1-4.6,15.1-10.3c0-15.4-24.7-7-24.7-18.8c0-4.3,4.3-7.5,9.4-7.5c10.9,0,9.1,9,12.5,9 c1.2,0,1.9-0.8,1.9-2c0-3.8-5.2-9-14.6-9c-8.2,0-13.8,4.6-13.8,10.2c0,14.9,24.7,6.6,24.7,18.8c0,4.8-4.6,7.6-10.5,7.6 c-11.7,0-9.2-8.9-13-8.9c-1.4,0-2.2,0.8-2.2,2.1C145.2,52.1,149.9,57.8,160.4,57.8 M124.4,21.3c6.1,0,10.6,5.7,10.6,9.4 c0,1-0.4,1.8-1.7,2.2l-21.5,6.6c-0.1-0.8-0.2-1.8-0.2-2.7C111.7,28.3,116.8,21.3,124.4,21.3 M138.2,46.6c-1.7,4.3-5.6,7.9-12.1,7.9 c-7,0-12.5-4.8-14-12.8l23.9-7.2c2.2-0.7,3.3-1.7,3.3-3.8c0-5.3-5.7-11.4-14.3-11.4c-10.3,0-18,8.3-18,18.9c0,12.2,8,19.7,17.5,19.7 c9.4,0,14.4-5.9,15.7-10.8C140.6,45.6,138.8,45.5,138.2,46.6 M86,21.3c6.1,0,10.6,5.7,10.6,9.4c0,1-0.4,1.8-1.7,2.2l-21.5,6.6 c-0.1-0.8-0.2-1.8-0.2-2.7C73.3,28.3,78.4,21.3,86,21.3 M99.9,46.6c-1.7,4.3-5.6,7.9-12.1,7.9c-7,0-12.5-4.8-14-12.8l23.9-7.2 c2.2-0.7,3.3-1.7,3.3-3.8c0-5.3-5.7-11.4-14.3-11.4c-10.3,0-18,8.3-18,18.9c0,12.2,8,19.7,17.5,19.7c9.4,0,14.4-5.9,15.7-10.8 C102.2,45.6,100.4,45.5,99.9,46.6 M59.3,19.2c-4.6,0-8.2,2.7-9.9,7.6v-6.5c0-1-0.5-1.5-1.7-0.9l-4.2,1.9c-0.7,0.3-1,0.6-1,1v0.2 c0,1.2,2.9,1.2,2.9,3.9v26.1c0,2.5-2.8,2.2-2.8,3.4v0.2c0,0.5,0.5,0.8,1.5,0.8h7.2c0.9,0,1.5-0.2,1.5-0.8v-0.2 c0-1.2-3.1-0.9-3.1-3.4V34c0-6.6,3.1-11.8,7.8-11.8c5.1,0,3.6,4.9,6.6,4.9c1.5,0,2.2-1.1,2.2-2.4C66.3,21.8,63.9,19.2,59.3,19.2 M18.3,57.1h7.3c0.9,0,1.5-0.2,1.5-0.8v-0.1c0-1.2-2.8-1.1-2.8-3.5V4.8h12.7c3.6,0,4.6,8,6.3,8h0.5c0.5,0,0.9-0.4,0.7-1.2l-1.8-7.8 c-0.2-0.9-0.7-1.5-1.8-1.5H3c-1.1,0-1.5,0.5-1.7,1.5L0,11.4c-0.2,0.9,0.2,1.3,0.7,1.3h0.5c1.8,0,2.1-8,5.6-8h12.7v47.9 c0,2.4-2.7,2.2-2.7,3.5v0.1C16.9,56.8,17.3,57.1,18.3,57.1"></path> <path fill="#ffffff" class="svg-tree svg-all" d="M370.3,19.6c0.7,1.2-0.7,2.5-1.9,1.8c-2.2-1.5-4.4-2.9-6.6-4.3c-2.3-1.4-4.5-3.3-5.4-6c-0.4-1.1-0.6-2.3,0.3-3.1 c0.9-0.8,2-1.1,3.2-0.3c0.7,0.4,1.4,0.7,2.1,1.2C365.8,11.6,368.1,15.6,370.3,19.6 M386.9,5.1c-1.8,6.5-4.9,11.9-9,16.9 c-0.8,0.9-2.3,0.4-2.4-0.8c-0.3-4.5,1-8.8,1.6-13.1c0.2-1.6,1.5-2.8,3.2-3.3c1.5-0.4,3.1-0.9,4.8-1.4C386.2,3.2,387.2,4.1,386.9,5.1 M388.3,2.1c0-0.1-0.1-0.2-0.1-0.2c-3.5-0.7-11.9,2.7-13,5.8c-1.1,3-1.5,6.3-1.8,9.5c-0.1,0.9-0.4,1.3-0.9,1.6c-0.9,0.4-1-0.6-1.2-1 c-1.9-3.4-4.1-6.7-6.7-9.6C363,6.5,361,5.5,359,4.5c-1.5-0.7-2.6,0.3-3.8,1.2c-1,0.9-1.2,1.7-1.1,3.1c0.3,5.1,3.8,7.6,7.4,10.2 c3.1,2.3,6.4,4.4,9.4,7c3.4,2.9,5.5,5.6,5.1,10.4c-0.5,5.4-0.5,10.9-1.1,16.4c-0.2,1.3-0.7,1.5-1.9,1.5c-5.6,0.1-11.3,1.1-16.9-0.6 c-0.3-0.1-0.7,0.1-1.1,0.2c-0.9,0.2-2.6-0.2-2.2,1.5c0.2,1.1,1.3,1.2,2.6,1.3c2.3,0,4.7,0.6,7,1.3c4.5,1.3,9.2,1.6,13.8,1.7 c1.4,0.1,2.6-0.3,3.9-1.5c1.7-1.5,4.6-1,6.9-0.9c3.9,0.2,7.7-0.1,11.5,0h0c1.6,0,1.8-2.3,0.3-2.6c-0.8-0.2-1.6-0.2-2.4-0.2 c-5.7-0.2-11.4-0.4-17.1-0.3c-1.6,0-1.6-0.3-1.7-1.7c-0.1-7.7,1.2-15.3-0.1-22.9c-0.5-2.8,1.2-4.5,2.6-6c3.8-4,5.8-8.9,7.8-13.9 c0.1-0.3,0.4-0.7,0.6-1c0.2-0.2,0.2-0.5,0.2-0.8C388.6,5.9,388.4,4,388.3,2.1"></path> <path fill="none" class="svg-leaf svg-all" d="M370.3,19.6c0.7,1.2-0.7,2.5-1.9,1.8c-2.2-1.5-4.4-2.9-6.6-4.3c-2.3-1.4-4.5-3.3-5.4-6 c-0.4-1.1-0.6-2.3,0.3-3.1c0.9-0.8,2-1.1,3.2-0.3c0.7,0.4,1.4,0.7,2.1,1.2C365.8,11.6,368.1,15.6,370.3,19.6 M386.9,5.1 c-1.8,6.5-4.9,11.9-9,16.9c-0.8,0.9-2.3,0.4-2.4-0.8c-0.3-4.5,1-8.8,1.6-13.1c0.2-1.6,1.5-2.8,3.2-3.3c1.5-0.4,3.1-0.9,4.8-1.4 C386.2,3.2,387.2,4.1,386.9,5.1"></path> </svg>
