<?xml version="1.0" encoding="UTF-8" standalone="no"?>
<!DOCTYPE svg PUBLIC "-//W3C//DTD SVG 1.1//EN" "http://www.w3.org/Graphics/SVG/1.1/DTD/svg11.dtd">
<svg width="100%" height="100%" viewBox="0 0 1080 500" version="1.1" xmlns="http://www.w3.org/2000/svg" xmlns:xlink="http://www.w3.org/1999/xlink" xml:space="preserve" xmlns:serif="http://www.serif.com/" style="fill-rule:evenodd;clip-rule:evenodd;stroke-linejoin:round;stroke-miterlimit:2;">
    <g transform="matrix(0.528407,0,0,0.528407,-165.545,-14.8193)">
        <g id="Side-Tier" serif:id="Side Tier">
            <g id="Colour---Blue" serif:id="Colour - Blue">
                <g id="WW" transform="matrix(0.786669,0,0,0.978542,324.96,-64.9213)">
                    <g transform="matrix(1.00249,0,0,1,8.77782,5.68434e-14)">
                        <path d="M634.964,532.949L667.089,603L791.369,332L893.178,332L667.089,825L584.073,643.978L634.964,532.949Z" style="fill:rgb(134,194,213);"/>
                    </g>
                    <g transform="matrix(1,0,0,1,113.089,5.68434e-14)">
                        <path d="M489.714,441.651L313.911,825L87.822,332L189.631,332L313.911,603L438.191,332L439.411,332L489.714,441.651Z" style="fill:rgb(70,74,77);"/>
                    </g>
                </g>
                <g transform="matrix(2.46053,0,0,1.86632,94.3733,-487.327)">
                    <path d="M415.297,655.471C404.256,655.471 394.643,652.287 386.457,645.919C378.272,639.55 371.926,630.853 367.421,619.827C362.915,608.801 360.663,596.444 360.663,582.757C360.663,567.359 362.757,553.956 366.945,542.55C371.133,531.144 376.844,522.304 384.078,516.031C391.312,509.757 399.497,506.621 408.635,506.621C419.549,506.621 428.401,510.043 435.191,516.886C441.98,523.73 446.962,532.902 450.134,544.404C453.307,555.905 454.893,568.689 454.893,582.757C454.893,584.658 454.83,586.892 454.703,589.458C454.576,592.024 454.386,593.973 454.132,595.304L388.456,595.304C389.471,601.197 391.216,606.14 393.691,610.132C396.166,614.124 399.275,617.118 403.019,619.114C406.763,621.11 410.983,622.108 415.678,622.108L442.71,622.108L442.71,655.471L415.297,655.471ZM388.266,569.07L428.813,569.07C428.56,565.458 428.115,562.083 427.481,558.947C426.846,555.81 425.958,553.006 424.816,550.535C423.674,548.063 422.341,545.972 420.818,544.261C419.295,542.55 417.518,541.219 415.488,540.269C413.457,539.318 411.236,538.843 408.825,538.843C405.652,538.843 402.829,539.699 400.354,541.41C397.879,543.121 395.817,545.402 394.167,548.253C392.517,551.105 391.216,554.337 390.265,557.949C389.313,561.56 388.646,565.267 388.266,569.07Z" style="fill:rgb(70,74,77);fill-rule:nonzero;"/>
                </g>
                <g transform="matrix(2.46053,0,0,1.86632,343.784,-487.327)">
                    <path d="M416.63,658.893C406.223,658.893 397.181,655.661 389.503,649.198C381.825,642.734 375.892,633.562 371.704,621.681C367.516,609.799 365.422,595.874 365.422,579.905L365.422,447.309L391.502,447.309L391.502,528.007L391.692,528.007C393.723,523.635 396.229,519.833 399.212,516.601C402.194,513.369 405.557,510.898 409.301,509.187C413.045,507.476 416.947,506.621 421.008,506.621C430.527,506.621 438.776,509.757 445.756,516.031C452.736,522.304 458.161,530.906 462.032,541.837C465.903,552.768 467.838,565.458 467.838,579.905C467.838,591.312 466.696,601.815 464.412,611.415C462.127,621.015 458.828,629.38 454.513,636.509C450.198,643.637 444.867,649.15 438.522,653.047C432.177,656.945 424.879,658.893 416.63,658.893ZM416.63,625.53C421.833,625.53 426.275,623.629 429.956,619.827C433.636,616.025 436.46,610.892 438.427,604.429C440.394,597.965 441.377,590.741 441.377,582.757C441.377,574.773 440.394,567.549 438.427,561.085C436.46,554.622 433.636,549.489 429.956,545.687C426.275,541.885 421.833,539.984 416.63,539.984C411.554,539.984 407.144,541.885 403.4,545.687C399.656,549.489 396.8,554.622 394.833,561.085C392.866,567.549 391.883,574.773 391.883,582.757C391.883,590.741 392.866,597.965 394.833,604.429C396.8,610.892 399.656,616.025 403.4,619.827C407.144,623.629 411.554,625.53 416.63,625.53Z" style="fill:rgb(70,74,77);fill-rule:nonzero;"/>
                </g>
                <g transform="matrix(2.46053,0,0,1.86632,623.558,-487.327)">
                    <path d="M413.013,655.471C402.987,655.471 394.04,652.24 386.172,645.776C378.303,639.313 372.085,630.615 367.516,619.684C362.947,608.754 360.663,596.444 360.663,582.757C360.663,569.07 362.947,556.76 367.516,545.829C372.085,534.899 378.303,526.201 386.172,519.738C394.04,513.274 402.987,510.043 413.013,510.043L425.196,510.043L425.196,543.406L413.013,543.406C407.683,543.406 403.082,545.117 399.212,548.538C395.341,551.96 392.359,556.665 390.265,562.654C388.17,568.642 387.123,575.343 387.123,582.757C387.123,590.171 388.17,596.872 390.265,602.86C392.359,608.849 395.341,613.554 399.212,616.975C403.082,620.397 407.683,622.108 413.013,622.108L425.196,622.108L425.196,655.471L413.013,655.471Z" style="fill:rgb(70,74,77);fill-rule:nonzero;"/>
                </g>
                <g transform="matrix(2.46053,0,0,1.86632,798.034,-487.327)">
                    <path d="M413.775,658.893C403.876,658.893 395.373,655.947 388.266,650.053C381.159,644.16 375.733,636.271 371.989,626.386C368.246,616.5 366.374,605.569 366.374,593.593L366.374,510.043L392.454,510.043L392.454,593.593C392.454,599.486 393.406,604.856 395.309,609.704C397.213,614.552 399.783,618.401 403.019,621.253C406.255,624.104 409.84,625.53 413.775,625.53C417.709,625.53 421.294,624.104 424.53,621.253C427.766,618.401 430.336,614.552 432.24,609.704C434.144,604.856 435.095,599.486 435.095,593.593L435.095,510.043L461.175,510.043L461.175,593.593C461.175,605.569 459.304,616.5 455.56,626.386C451.816,636.271 446.422,644.16 439.379,650.053C432.335,655.947 423.8,658.893 413.775,658.893Z" style="fill:rgb(70,74,77);fill-rule:nonzero;"/>
                </g>
                <g transform="matrix(2.46053,0,0,1.86632,1064.14,-487.327)">
                    <path d="M365.422,655.471L365.422,551.39C365.422,538.463 367.865,528.34 372.751,521.021C377.637,513.702 384.395,510.043 393.025,510.043L419.866,510.043L419.866,543.406L397.594,543.406C395.944,543.406 394.516,544.261 393.31,545.972C392.105,547.683 391.502,549.869 391.502,552.531L391.502,655.471L365.422,655.471Z" style="fill:rgb(70,74,77);fill-rule:nonzero;"/>
                </g>
                <g transform="matrix(2.46053,0,0,1.86632,1221.81,-487.327)">
                    <rect x="366.374" y="447.309" width="26.08" height="208.163" style="fill:rgb(70,74,77);fill-rule:nonzero;"/>
                </g>
            </g>
        </g>
    </g>
</svg>
